# xmcd
#
# Track frame offsets:
#  150
#  17823
#  36918
#  59439
#  84582
#  112415
#  137471
#  165713
#  188584
#  207729
#  225627
#  242686
#
# Disc length: 3490 seconds
#
# Revision: 2
# Processed by: cddbd v1.5.2PL0 Copyright (c) Steve Scherf et al.
# Submitted via: Collectorz.com_Music_Collector 6.10
#
DISCID=a70da00c
DTITLE=Dupree, Champion Jack - St. Claude and Dumaine
DYEAR=2002
DGENRE=Blues
TTITLE0=My Baby's Coming Home
TTITLE1=You Rascal You
TTITLE2=No Tomorrow
TTITLE3=The Heart of the Blues is Sound
TTITLE4=Hard Feeling
TTITLE5=Blues From 1921
TTITLE6=Don't Mistreat Your Woman
TTITLE7=Mercy on Me
TTITLE8=I'm A Gambling Man
TTITLE9=A Good Woman Is Hard To Find
TTITLE10=I Hate To Be Alone
TTITLE11=I'm Growing Older Everyday
EXTD=
EXTT0=
EXTT1=
EXTT2=
EXTT3=
EXTT4=
EXTT5=
EXTT6=
EXTT7=
EXTT8=
EXTT9=
EXTT10=
EXTT11=
PLAYORDER=
